Coordinates
version=1
nRows=17
nColumns=38
inDegrees=no

Units are S.I. units (second, meters, Newtons, ...)
If the header above contains a line with 'inDegrees', this indicates whether rotational values are in degrees (yes) or radians (no).

endheader
time	pelvis_tilt	pelvis_list	pelvis_rotation	pelvis_tx	pelvis_ty	pelvis_tz	hip_flexion_r	hip_adduction_r	hip_rotation_r	knee_angle_r	ankle_angle_r	subtalar_angle_r	mtp_angle_r	hip_flexion_l	hip_adduction_l	hip_rotation_l	knee_angle_l	ankle_angle_l	subtalar_angle_l	mtp_angle_l	lumbar_extension	lumbar_bending	lumbar_rotation	arm_flex_r	arm_add_r	arm_rot_r	elbow_flex_r	pro_sup_r	wrist_flex_r	wrist_dev_r	arm_flex_l	arm_add_l	arm_rot_l	elbow_flex_l	pro_sup_l	wrist_flex_l	wrist_dev_l
1.27	2.82837	1.29732	-1.20361	0.782327	0.820452	0.921357	-0.517699	0.16095	-0.0828072	0.0474554	-0.214872	0	0	0.157881	-0.0866204	-0.165815	0.419395	-0.0866691	0	0	-0.184328	0.136677	0.253106	-0.259638	-0.973834	-0.010036	1.66116	0.341005	0	0	0.614854	-0.505046	0.831423	1.15997	0.554226	0	0
1.28	2.83274	1.29415	-1.20765	0.781325	0.830269	0.920673	-0.522435	0.157551	-0.0837099	0.0695605	-0.2084	0	0	0.151417	-0.0807536	-0.152978	0.443353	-0.0873494	0	0	-0.186523	0.137305	0.251539	-0.25859	-0.976416	-0.00785307	1.66112	0.338459	0	0	0.615063	-0.505831	0.832738	1.16097	0.553918	0	0
1.29	2.83827	1.29182	-1.21303	0.780232	0.840274	0.919987	-0.523599	0.153506	-0.0852748	0.0956462	-0.198612	0	0	0.144841	-0.0735593	-0.138353	0.462234	-0.0848857	0	0	-0.187649	0.137008	0.250417	-0.258863	-0.978825	-0.00655545	1.66058	0.338239	0	0	0.615662	-0.506842	0.835551	1.16234	0.55235	0	0
1.3	2.84439	1.29041	-1.21876	0.779118	0.850375	0.919351	-0.523599	0.148705	-0.0852977	0.123769	-0.191947	0	0	0.139244	-0.0663916	-0.125683	0.473204	-0.0887597	0	0	-0.187727	0.135983	0.249779	-0.261546	-0.979414	-0.00752931	1.66038	0.340479	0	0	0.616635	-0.507178	0.839	1.16304	0.550513	0	0
1.31	2.84977	1.28991	-1.22352	0.778045	0.860466	0.918755	-0.522205	0.143967	-0.0841694	0.155313	-0.188719	0	0	0.134827	-0.0602505	-0.114006	0.477531	-0.102349	0	0	-0.187243	0.134879	0.249297	-0.265932	-0.978742	-0.0109107	1.66084	0.341153	0	0	0.617183	-0.507202	0.841414	1.16374	0.549764	0	0
1.32	2.8519	1.29088	-1.22512	0.77701	0.870627	0.918154	-0.515306	0.139458	-0.0824207	0.191103	-0.186769	0	0	0.132092	-0.0554908	-0.102775	0.479027	-0.123419	0	0	-0.185137	0.134217	0.248823	-0.271293	-0.976906	-0.0157028	1.66145	0.340499	0	0	0.61671	-0.507382	0.842913	1.16488	0.549048	0	0
1.33	2.85105	1.29221	-1.22379	0.775931	0.880897	0.917576	-0.505813	0.134852	-0.0807343	0.230379	-0.186581	0	0	0.130723	-0.0523628	-0.0941255	0.482835	-0.144594	0	0	-0.181993	0.134206	0.24829	-0.276777	-0.974864	-0.0198313	1.66201	0.340631	0	0	0.615705	-0.507507	0.844243	1.16599	0.548193	0	0
1.34	2.84894	1.29288	-1.22106	0.774734	0.891252	0.917097	-0.494592	0.129549	-0.0806262	0.274112	-0.190051	0	0	0.130565	-0.0508918	-0.0887647	0.492976	-0.160282	0	0	-0.178947	0.135054	0.247457	-0.281987	-0.973276	-0.0229469	1.66272	0.341564	0	0	0.614582	-0.507609	0.845877	1.16686	0.547718	0	0
1.35	2.84756	1.29244	-1.21886	0.773459	0.901609	0.916869	-0.481477	0.12284	-0.0831978	0.323567	-0.19855	0	0	0.13056	-0.0505897	-0.0846056	0.50953	-0.170318	0	0	-0.176914	0.136273	0.246523	-0.287077	-0.971934	-0.0262625	1.66294	0.342861	0	0	0.613461	-0.507316	0.847331	1.16728	0.548181	0	0
1.36	2.84874	1.29159	-1.21911	0.772168	0.911965	0.916988	-0.46604	0.114	-0.0877456	0.37802	-0.213343	0	0	0.129287	-0.0498819	-0.0798688	0.528825	-0.175685	0	0	-0.176342	0.137033	0.245429	-0.292745	-0.969689	-0.0309766	1.66386	0.343179	0	0	0.611522	-0.507607	0.847568	1.16889	0.549016	0	0
1.37	2.8553	1.28944	-1.2246	0.770911	0.922187	0.917509	-0.449492	0.102981	-0.0938165	0.436415	-0.234714	0	0	0.124275	-0.0476419	-0.0739219	0.546854	-0.175512	0	0	-0.177262	0.136208	0.24429	-0.296074	-0.967752	-0.0327105	1.66276	0.346793	0	0	0.610722	-0.50771	0.849098	1.16923	0.549792	0	0
1.38	2.86602	1.28638	-1.23419	0.769736	0.932213	0.918308	-0.431187	0.0903361	-0.100756	0.497734	-0.262699	0	0	0.1162	-0.0439796	-0.0673103	0.56208	-0.170328	0	0	-0.179375	0.134284	0.243277	-0.298024	-0.96527	-0.0334581	1.66074	0.349517	0	0	0.611063	-0.507496	0.851651	1.16829	0.549594	0	0
1.39	2.87994	1.28266	-1.24721	0.768646	0.942064	0.919254	-0.410555	0.0761549	-0.108901	0.561908	-0.29776	0	0	0.106203	-0.0394896	-0.0644702	0.576769	-0.16154	0	0	-0.182998	0.131414	0.242868	-0.30022	-0.962871	-0.0344856	1.6595	0.35204	0	0	0.612354	-0.507675	0.854903	1.16794	0.549181	0	0
1.4	2.89594	1.27821	-1.26265	0.767644	0.951666	0.920279	-0.387911	0.0608928	-0.116343	0.627896	-0.34066	0	0	0.0950428	-0.0352404	-0.0671556	0.59149	-0.151575	0	0	-0.187896	0.127986	0.24293	-0.301759	-0.960379	-0.0355864	1.65833	0.353285	0	0	0.614664	-0.508072	0.85881	1.16771	0.547631	0	0
1.41	2.91107	1.27438	-1.27776	0.766741	0.961119	0.92124	-0.362199	0.0454353	-0.122318	0.694389	-0.395296	0	0	0.0838578	-0.0321002	-0.0749314	0.60561	-0.140605	0	0	-0.192778	0.124496	0.243625	-0.304385	-0.95792	-0.0383642	1.65833	0.351871	0	0	0.617252	-0.509331	0.86301	1.16894	0.545042	0	0
1.42	2.92438	1.27099	-1.29187	0.765913	0.970378	0.922109	-0.334213	0.030488	-0.126015	0.761014	-0.441723	0	0	0.0717089	-0.0300734	-0.0846652	0.616659	-0.131049	0	0	-0.197743	0.121191	0.244966	-0.30713	-0.956042	-0.0416439	1.65919	0.349312	0	0	0.619789	-0.511202	0.866726	1.17152	0.543142	0	0
1.43	2.934	1.26847	-1.30281	0.765118	0.979452	0.922843	-0.304105	0.0169035	-0.127983	0.826628	-0.481374	0	0	0.0594852	-0.0290177	-0.0929454	0.624549	-0.121467	0	0	-0.199671	0.118366	0.246737	-0.307264	-0.955288	-0.040693	1.65705	0.350125	0	0	0.623777	-0.511473	0.872982	1.17043	0.539793	0	0
